HIERARCHY
ROOT SpineBase
{
  OFFSET 0.000000 0.000000 0.000000
  CHANNELS 6 Xposition Yposition Zposition Zrotation Xrotation Yrotation
  JOINT SpineMid
  {
    OFFSET 0.000000 31.325508 0.000000
    CHANNELS 3 Zrotation Xrotation Yrotation
    JOINT SpineShoulder
    {
      OFFSET -0.146429 23.252397 -0.866251
      CHANNELS 3 Zrotation Xrotation Yrotation
      JOINT Neck
      {
        OFFSET -0.050069 7.723552 -0.641109
        CHANNELS 3 Zrotation Xrotation Yrotation
        JOINT Head
        {
          OFFSET -4.238372 10.573691 3.574060
          CHANNELS 3 Zrotation Xrotation Yrotation
          End Site
          {
            OFFSET 0 0 0
          }
        }
      }
      JOINT ShoulderLeft
      {
        OFFSET -7.402187 -3.812412 11.420620
        CHANNELS 3 Zrotation Xrotation Yrotation
        JOINT ElbowLeft
        {
          OFFSET 0.171284 -24.884570 -3.295834
          CHANNELS 3 Zrotation Xrotation Yrotation
          JOINT WristLeft
          {
            OFFSET -4.932784 -22.455129 8.499746
            CHANNELS 3 Zrotation Xrotation Yrotation
            JOINT HandLeft
            {
              OFFSET -1.034972 -8.660285 -0.575006
              CHANNELS 3 Zrotation Xrotation Yrotation
              JOINT HandTipLeft
              {
                OFFSET -0.616880 -3.851151 -0.177474
                CHANNELS 3 Zrotation Xrotation Yrotation
                End Site
                {
                  OFFSET 0 0 0
                }
              }
              JOINT ThumbLeft
              {
                OFFSET 0.672546 0.949734 -4.254172
                CHANNELS 3 Zrotation Xrotation Yrotation
                End Site
                {
                  OFFSET 0 0 0
                }
              }
            }
          }
        }
      }
      JOINT ShoulderRight
      {
        OFFSET 5.868468 -3.851437 -12.463605
        CHANNELS 3 Zrotation Xrotation Yrotation
        JOINT ElbowRight
        {
          OFFSET 1.350028 -23.056835 -7.314712
          CHANNELS 3 Zrotation Xrotation Yrotation
          JOINT WristRight
          {
            OFFSET -7.534735 -19.199002 -0.808445
            CHANNELS 3 Zrotation Xrotation Yrotation
            JOINT HandRight
            {
              OFFSET -3.209544 -9.433182 2.333336
              CHANNELS 3 Zrotation Xrotation Yrotation
              JOINT HandTipRight
              {
                OFFSET -6.420078 -6.136921 -1.590687
                CHANNELS 3 Zrotation Xrotation Yrotation
                End Site
                {
                  OFFSET 0 0 0
                }
              }
              JOINT ThumbRight
              {
                OFFSET 5.268583 0.735563 2.330415
                CHANNELS 3 Zrotation Xrotation Yrotation
                End Site
                {
                  OFFSET 0 0 0
                }
              }
            }
          }
        }
      }
    }
  }
  JOINT HipLeft
  {
    OFFSET -3.679675 0.962176 0.915460
    CHANNELS 3 Zrotation Xrotation Yrotation
    JOINT KneeLeft
    {
      OFFSET 9.357508 -24.181240 -9.858752
      CHANNELS 3 Zrotation Xrotation Yrotation
      JOINT AnkleLeft
      {
        OFFSET 9.701028 -37.335532 9.066280
        CHANNELS 3 Zrotation Xrotation Yrotation
        JOINT FootLeft
        {
          OFFSET -8.540166 -4.224826 -7.616115
          CHANNELS 3 Zrotation Xrotation Yrotation
          End Site
          {
            OFFSET 0 0 0
          }
        }
      }
    }
  }
  JOINT HipRight
  {
    OFFSET 3.362322 1.229184 -8.027960
    CHANNELS 3 Zrotation Xrotation Yrotation
    JOINT KneeRight
    {
      OFFSET 0.794815 -32.849536 1.826200
      CHANNELS 3 Zrotation Xrotation Yrotation
      JOINT AnkleRight
      {
        OFFSET 11.408433 -31.899256 7.715869
        CHANNELS 3 Zrotation Xrotation Yrotation
        JOINT FootRight
        {
          OFFSET 0.223704 -8.565969 -1.671264
          CHANNELS 3 Zrotation Xrotation Yrotation
          End Site
          {
            OFFSET 0 0 0
          }
        }
      }
    }
  }
}
MOTION
Frames: 9
Frame Time: 0.033333
9.122431 75.079095 315.285582 -0.000000 0.000000 51.783307 -0.000000 0.000000 -51.783307 -0.000000 0.000000 0.000000 -0.000000 0.000000 0.000000 0.000000 0.000000 0.000000 -0.000000 0.000000 0.000000 -0.000000 0.000000 0.000000 -0.000000 0.000000 0.000000 -0.000000 0.000000 0.000000 0.000000 0.000000 0.000000 0.000000 0.000000 0.000000 -0.000000 0.000000 0.000000 -0.000000 0.000000 0.000000 -0.000000 0.000000 0.000000 -0.000000 0.000000 0.000000 0.000000 0.000000 0.000000 0.000000 0.000000 0.000000 -0.000000 0.000000 -51.783307 -0.000000 0.000000 0.000000 -0.000000 0.000000 0.000000 0.000000 0.000000 0.000000 -0.000000 0.000000 -51.783307 -0.000000 0.000000 0.000000 -0.000000 0.000000 0.000000 0.000000 0.000000 0.000000
9.026177 75.336952 315.280348 -0.041368 -0.225869 52.132989 0.203702 0.105988 -52.133259 -0.000000 0.000000 0.000000 -1.938803 -1.851908 -0.119785 0.000000 0.000000 0.000000 -0.000000 0.000000 0.000000 -0.702448 -2.998528 0.370396 -3.377884 -8.832201 1.075849 12.223311 11.106631 -4.017614 0.000000 0.000000 0.000000 0.000000 0.000000 0.000000 -1.232750 -0.003023 0.391140 2.401721 -0.481505 -0.251206 -1.171095 0.470882 -0.130129 1.829919 -1.779382 1.445594 0.000000 0.000000 0.000000 0.000000 0.000000 0.000000 -2.508213 4.591983 -49.622823 8.396645 -1.454080 -1.641215 -3.239064 0.524593 -0.641035 0.000000 0.000000 0.000000 0.203702 0.105988 -52.133259 -0.000000 0.000000 0.000000 -13.051454 9.690664 3.868411 0.000000 0.000000 0.000000
8.959148 75.534422 315.276084 -0.040530 -0.433906 52.436477 0.368659 0.232397 -52.437378 -0.000000 0.000000 0.000000 -3.408278 -3.419058 -0.327480 0.000000 0.000000 0.000000 -0.000000 0.000000 0.000000 -1.203870 -5.715882 0.725465 -5.876410 -16.104751 1.613164 21.398991 19.276102 -9.754975 0.000000 0.000000 0.000000 0.000000 0.000000 0.000000 -2.182555 0.015305 0.694417 4.377269 -0.966828 -0.412085 -2.536461 1.800363 -0.623508 3.780485 -4.217927 3.278414 0.000000 0.000000 0.000000 0.000000 0.000000 0.000000 -4.825279 8.694197 -47.449828 15.787766 -3.310753 -2.940031 -6.107492 1.124525 -1.150970 0.000000 0.000000 0.000000 0.368659 0.232397 -52.437378 -0.000000 0.000000 0.000000 -25.730655 17.365613 9.317038 0.000000 0.000000 0.000000
8.921344 75.671505 315.272791 0.002998 -0.623122 52.691202 0.493809 0.380061 -52.692823 -0.000000 0.000000 0.000000 -4.443562 -4.725062 -0.593248 0.000000 0.000000 0.000000 -0.000000 0.000000 0.000000 -1.500720 -8.130375 1.082023 -7.459350 -21.304999 1.826925 27.889507 24.627023 -15.136626 0.000000 0.000000 0.000000 0.000000 0.000000 0.000000 -2.864662 0.058810 0.915080 5.963793 -1.451729 -0.486260 -3.448389 2.338416 -0.767351 5.082622 -5.683794 4.641736 0.000000 0.000000 0.000000 0.000000 0.000000 0.000000 -6.875596 12.246169 -45.369687 22.075133 -5.392843 -3.872001 -8.587351 1.782889 -1.527521 0.000000 0.000000 0.000000 0.493809 0.380061 -52.692823 -0.000000 0.000000 0.000000 -36.539154 22.365571 14.917058 0.000000 0.000000 0.000000
8.912765 75.748201 315.270470 0.089391 -0.792658 52.893711 -0.040119 -0.002036 -52.895623 -0.009590 -0.105646 0.001544 -5.122580 -4.865746 -0.811994 0.000000 0.000000 0.000000 -0.057235 0.931525 0.001754 -1.590618 -10.228411 1.454610 -8.239537 -24.589315 1.893006 31.695319 27.925638 -19.043350 0.000000 0.000000 0.000000 0.000000 0.000000 0.000000 -3.347224 1.060347 1.111807 7.189683 -1.934282 -0.476497 -4.148434 2.641374 -0.807779 5.919110 -6.719782 5.739078 0.000000 0.000000 0.000000 0.000000 0.000000 0.000000 -8.599141 15.240428 -43.467976 27.235566 -7.554379 -4.473591 -10.671446 2.486121 -1.772807 0.000000 0.000000 0.000000 0.578245 0.549490 -52.895866 -0.000000 0.000000 0.000000 -44.912418 25.269075 19.677978 0.000000 0.000000 0.000000
8.933411 75.764511 315.269119 0.218500 -0.941793 53.039597 -0.069099 0.008078 -53.037203 0.026381 -0.106210 0.009064 -5.505435 -5.551194 -1.128494 0.000000 0.000000 0.000000 -0.196703 1.098390 -0.007328 -1.472230 -12.002173 1.854945 -8.368985 -26.329184 1.894972 32.853389 29.879652 -21.023195 0.000000 0.000000 0.000000 0.000000 0.000000 0.000000 -3.659849 1.329437 1.179637 8.075359 -2.414452 -0.384395 -4.635311 2.075780 -0.526652 6.193391 -6.718593 6.235732 0.000000 0.000000 0.000000 0.000000 0.000000 0.000000 -9.953514 17.702867 -41.806814 31.289933 -9.693220 -4.813309 -12.359718 3.224445 -1.891749 0.000000 0.000000 0.000000 1.431411 0.308022 -52.993557 -0.833329 -0.386407 -0.058487 -51.023129 26.864237 23.310777 0.000000 0.000000 0.000000
9.010901 75.695904 315.304117 0.388441 -1.118531 53.048207 -0.109979 -0.002823 -53.039011 0.096106 -0.107075 0.021265 -5.872879 -6.230858 -1.501436 0.000000 0.000000 0.000000 -0.420110 1.315369 -0.021543 -1.219617 -14.106245 2.384335 -8.361320 -27.162768 1.844690 27.258929 28.251751 -17.569180 0.000000 0.000000 0.000000 0.000000 0.000000 0.000000 -3.733432 1.759818 1.144959 8.580912 -2.905676 -0.210873 -5.290930 2.366348 -0.585382 5.916512 -6.668330 6.218346 0.000000 0.000000 0.000000 0.000000 0.000000 0.000000 -11.274992 20.205487 -39.891696 35.290355 -12.524922 -5.003021 -14.134309 4.404293 -1.834625 0.000000 0.000000 0.000000 1.716327 0.489349 -52.993194 -1.029667 -0.546006 -0.075357 -57.259354 27.796427 26.978777 0.000000 0.000000 0.000000
9.056832 75.561763 315.353555 0.558950 -1.279084 53.061659 -0.151070 0.019738 -53.045568 0.139386 -0.079531 0.030177 -5.542573 -6.537421 -1.866150 0.000000 0.000000 0.000000 -0.590793 1.467870 -0.031991 -0.634484 -15.404009 2.924464 -7.401564 -26.768386 1.726192 22.272722 27.735902 -14.736521 0.000000 0.000000 0.000000 0.000000 0.000000 0.000000 -3.468248 2.135385 1.009806 8.514663 -3.406234 0.070603 -4.819661 1.889506 -0.226898 5.064695 -6.851597 6.759397 0.000000 0.000000 0.000000 0.000000 0.000000 0.000000 -12.570621 22.329791 -38.162244 38.863658 -15.020406 -4.992772 -15.762947 5.482761 -1.749984 0.000000 0.000000 0.000000 2.030236 0.604790 -52.994912 -2.308666 -0.652517 -0.336513 -59.811030 27.868264 29.123005 0.000000 0.000000 0.000000
9.160774 75.374290 315.317096 0.831689 -1.323017 53.044783 -0.229427 0.035411 -53.016589 0.216454 -0.036971 0.045311 -4.540579 -6.465165 -2.261397 0.000000 0.000000 0.000000 -0.880271 1.522901 -0.051557 0.237411 -15.619835 3.399118 -5.809033 -25.125370 1.470293 17.033750 29.303032 -12.148838 0.000000 0.000000 0.000000 0.000000 0.000000 0.000000 -2.870011 2.438715 0.700803 7.882081 -3.929743 0.505709 -3.990797 1.263974 0.228121 2.857822 -6.264385 6.677135 0.000000 0.000000 0.000000 0.000000 0.000000 0.000000 -10.734560 22.248314 -38.778630 36.344651 -16.253833 -4.990853 -14.867193 5.963863 -1.364233 0.000000 0.000000 0.000000 1.939647 0.772449 -52.975743 -2.633391 -0.691003 -0.422399 -60.421582 27.703951 29.596572 0.000000 0.000000 0.000000
